<svg width="1105" height="320" viewBox="0 0 1105 320" fill="none" xmlns="http://www.w3.org/2000/svg">
<path d="M227.468 278.748C169.265 330.156 67.671 324.63 20.386 274.954C-40.9451 192.977 77.5382 81.2697 134.049 2.25232C182.497 76.4278 285.67 227.341 227.468 278.748Z" fill="url(#paint0_linear_466_367)"/>
<path d="M95.3045 245.844C96.6746 246.163 96.6746 246.163 98.0723 246.489C107.686 248.981 116.698 253.525 125.652 257.772C144.121 266.507 162.839 274.736 183.318 273.469C184.903 273.374 186.489 273.295 188.077 273.216C218.279 271.503 246.854 253.523 254.583 246.361C207.36 313.79 82.0231 349.37 12.5471 258.233C38.9919 243.934 64.5848 238.062 95.3045 245.844Z" fill="#11BAF9"/>
<path d="M134.872 1.913C146.055 19.6194 162.848 45.6836 179.247 69.7587C174.583 69.677 169.918 69.5952 165.112 69.511C170.2 78.3261 170.2 78.3261 175.616 86.999C187.307 105.158 197.568 125.319 191.299 146.384C190.396 148.836 189.127 151.043 187.65 153.287C187.352 153.74 187.055 154.194 186.749 154.661C181.612 162.242 172.957 166.734 163.091 169.252C154.568 170.728 144.539 170.55 136.632 167.466C136.158 167.284 135.683 167.102 135.195 166.914C126.57 163.562 118.648 159.643 110.934 154.975C105.857 151.929 100.736 149.442 95.0351 147.286C94.433 147.057 93.8309 146.829 93.2106 146.593C69.9313 138.114 37.6314 146.128 20.1951 162.122C50.0986 112.356 87.3217 66.4228 122.496 19.2065C126.923 13.2627 131.539 7.47114 134.872 1.913Z" fill="#11BAF9"/>
<path d="M406.018 41C421.192 41 436.366 41 452 41C451.958 92.4851 451.367 143.99 451.674 195.475C451.8 219.008 442.649 238.444 428.923 256.181C346.627 349.586 218.896 216.639 308.712 123.64C331.427 101.116 380.494 93.8188 405.018 120.015C405.348 93.94 405.678 67.8651 406.018 41Z" fill="#1C3656"/>
<path d="M1092.37 146.335C1103.16 165.254 1105.16 184.455 1104.99 206.076C1104.93 230.832 1104.82 255.589 1104.7 280.345C1090.15 280.345 1075.61 280.345 1060.63 280.345C1060.3 274.37 1059.97 268.394 1059.63 262.238C1042.64 279.253 1023.94 285.1 1000.67 283.834C959.055 277.152 934.428 240.845 931.109 204.415C927.052 110.961 1037.25 59.8861 1092.37 146.335Z" fill="#1C3656"/>
<path d="M813.219 109.027C823.983 116.893 827.085 129.989 830 142.933C832.408 154.008 832.408 154.008 835.5 164.873C841.144 182.058 844.567 201.334 849.086 218.922C849.586 218.924 850.086 218.924 851 218.922C859.086 185.746 867.206 151.543 876.388 118.925C877.442 115.153 878.276 111.486 879 107.614C894.18 107.614 909.36 107.614 925 107.614C911.086 163.268 895.45 211.359 880.379 262.252C877.045 271.35 870.946 277.96 862.938 282.537C855.525 285.669 847.155 285.614 839.613 283.063C831.061 278.86 825.287 273.192 821.699 263.823C812.06 235 803.586 194.308 797 163.268C796.01 163.268 795.02 163.268 794 163.268C786.132 194.233 777.323 224.911 769.332 255.839C766.245 267.426 762.431 274.448 753.078 281.345C745.922 285.575 736.931 285.53 729 284.209C716.556 279.885 709.057 268.706 706.312 255.579C694.086 211.967 679.086 156.848 666 107.614C680.85 107.614 695.7 107.614 711 107.614C720.877 144.613 730.089 181.656 739 218.922C739.66 218.922 740.32 218.922 741 218.922C747.586 188.957 754.14 161.518 761.719 133.3C764.745 122.458 768.916 113.45 778.156 107.233C789.794 100.796 802.097 101.944 813.219 109.027Z" fill="#1C3656"/>
<path d="M634.375 38.014C635.326 38.0105 636.278 38.0071 637.258 38.0036C644.512 38.061 650.675 39.1763 658 40.4764C658 54.5322 658 68.5881 658 83.0699C651.4 83.0699 644.8 83.0699 638 83.0699C630.227 85.1391 626.252 86.599 621.125 92.7865C619.376 97.1278 619.376 97.1278 619 107.561C630.22 107.561 641.44 107.561 653 107.561C653 122.32 653 137.078 653 152.284C641.45 152.284 629.9 152.284 618 152.284C618 194.101 618 235.917 618 279C603.48 279 588.96 279 574 279C574 237.184 574 195.368 574 152.284C567.07 152.284 560.14 152.284 553 152.284C553 137.526 553 122.767 553 107.561C560.26 107.561 567.52 107.561 575 107.561C574.938 105.145 574.876 102.729 574.812 100.24C574.706 82.7148 582.752 66.8047 594 54.3193C597.628 50.9561 601.53 48.2839 605.688 45.734C606.249 45.3737 606.81 45.0134 607.389 44.6422C616.055 39.3112 624.462 37.8366 634.375 38.014Z" fill="#1D3757"/>
<path d="M480 108C494.85 108 509.7 108 525 108C525 165.09 525 222.18 525 281C510.15 281 495.3 281 480 281C480 223.91 480 166.82 480 108Z" fill="#1C3757"/>
<ellipse cx="366.5" cy="193.5" rx="44.5" ry="47.5" fill="#D9D9D9"/>
<ellipse cx="1017.39" cy="192.5" rx="44.5" ry="47.5" fill="#D9D9D9"/>
<ellipse cx="504" cy="65" rx="23" ry="25" fill="#11BAF9"/>
<defs>
<linearGradient id="paint0_linear_466_367" x1="92.1123" y1="190.059" x2="261.635" y2="-30.5994" gradientUnits="userSpaceOnUse">
<stop stop-color="white"/>
<stop offset="0.95348" stop-color="#3CCAFF" stop-opacity="0"/>
</linearGradient>
</defs>
</svg>
